<svg xmlns="http://www.w3.org/2000/svg" xmlns:xlink="http://www.w3.org/1999/xlink" version="1.1" x="0px" y="0px" viewBox="0 0 100 100" enable-background="new 0 0 100 100" xml:space="preserve"><path fill="#000000" d="M55.263,38.275c0,0,8.544-3.084,13.32,1.892c0,0,5.486,1.492,4.988,2.288  c-0.497,0.796-2.984,0.896-3.682,1.393c-0.696,0.498-4.623,3.208-5.473,4.319c-0.937,1.225-2.5,1.75,0.02,8.815  c0.73,2.049,4.358,9.752,6.449,11.741c2.089,1.991,6.614,3.526,13.135,3.582c2.01,0.018,1.193,3.385-7.861,1.691  c0,0,0.378,1.604,5.758,2.753c7.366,1.574,8.843,2.235,8.667,3.333c-0.334,2.084-9.056-0.384-10.25-0.583  c0,0,1.173,2.726,9.083,3.917c6.083,0.916,0.417,4.333-6.392,1.824c0,0,2.325,3.107,4.875,4.379c2.1,1.047,1.6,3.464-7.96-1.592  c0,0,4.106,4.593,4.378,5.673c0.432,1.716-3.234,1.049-7.165-3.582c0,0-0.403,2.465,2.931,5.715  c1.791,1.745-4.124,2.941-7.508-4.621c0,0,1.424,6.037,0.508,6.621c-1.228,0.782-2.995-3.536-3.691-4.83  c-0.697-1.293-0.726,1.58-1.559,1.663c-2.167,1-2.621-3.354-2.621-3.354S62.281,92.366,60,90.417c-1.24-1.06-2.25-0.917-3.543-2.688  c-0.587-0.804-3.085-2.387-3.383-3.78c-0.299-1.394-3.086-2.786-3.384-4.278c-0.299-1.493-2.09-3.384-2.189-5.075  s-1.917-2.929-1.492-5.374c0.168-0.966-0.523-3.525-0.796-4.278c-0.462-1.276-1.792-1.095-1.891-0.1  c-0.1,0.995-5.193,20.097-8.072,21.573c-1.466,0.752-2.774-3.562-2.774-3.562s-2.079,5.079-3.226,4.979  c-2.356-0.206-1.65-5.179-1.849-5.874c-0.199-0.696-1.9,4.874-3.567,4.124c-1.605-0.723-1.109-5.219-1.01-5.517  c0.1-0.299-2.324,0.934-2.99,0.184c-0.799-0.898-0.393-2.572-0.393-2.572s-4.774,0.155-3.284-4.08  c-1.906-0.348-1.89-1.99-1.89-3.185c-2.183-0.663-2.089-2.588-2.089-3.334c-0.593-0.829-1.51-2.579-0.593-3.829  c-1.333-1.417-1.333-2.333-0.693-3.783c-0.807-1.05-0.75-3.083-0.031-4.277c0.72-1.195-2.067-4.181,1.018-4.876  c3.084-0.697,14.616,6.042,23.539,2.854c1.167-0.417,1.736-2.456,1.736-2.456s-1.195-1.158-1.095-1.922  c0.099-0.764-2.642-0.372-3.284-2.556c-0.314-1.067-2.358-0.566-2.886-3.284c-0.346-1.782-2.638-2.199-2.586-4.478  c0.016-0.703-2.468-1.638-1.792-4.279c0.3-1.172-2.177-3.693-0.996-5.871c0.304-0.56-0.99-3.144-0.497-4.08  c0.566-1.075-0.934-1.909,0-3.88c0.554-1.169-0.299-3.284,0.896-3.782c1.193-0.498-0.869-3.543,1.193-3.881  c1.727-0.283-0.357-5.45,2.488-4.179c2.076,0.927,0.896-3.582,2.587-4.875c1.691-1.293,1.393,3.382,3.084,5.273  c1.691,1.891,0.896-7.363,2.587-7.165c1.692,0.2,0.596,4.08,1.393,6.767c0.796,2.687,2.089-6.767,4.081-6.169  c1.989,0.597,0.297,4.378,1.292,7.164c0.996,2.786,4.08-6.468,5.672-4.478c1.592,1.99-4.279,9.652-2.687,14.031  c0,0,2.475-7.405,3.682-4.876c1.38,2.891-2.787,5.891-0.787,11.891C51.64,33.002,54.083,32.5,55.263,38.275z"></path></svg>